<svg xmlns="http://www.w3.org/2000/svg" xmlns:xlink="http://www.w3.org/1999/xlink" width="15" height="15" preserveAspectRatio="xMidYMid meet" viewBox="0 0 15 15" style="-ms-transform: rotate(360deg); -webkit-transform: rotate(360deg); transform: rotate(360deg);"><g fill="none"><path fill-rule="evenodd" clip-rule="evenodd" d="M11.146 6.854a.5.5 0 0 0 .708-.708l-4-4a.5.5 0 0 0-.708 0l-4 4a.5.5 0 1 0 .708.708L7.5 3.207l3.646 3.647zm0 6a.5.5 0 0 0 .708-.708l-4-4a.5.5 0 0 0-.708 0l-4 4a.5.5 0 0 0 .708.708L7.5 9.207l3.646 3.647z" fill="white"/></g><rect x="0" y="0" width="15" height="15" fill="rgba(0, 0, 0, 0)" /></svg>